# AST/ASF file generated using VICON BodyLanguage
# -----------------------------------------------
:version 1.10
:name VICON
:units
  mass 1.0
  length 0.45
  angle deg
:documentation
   .ast/.asf automatically generated from VICON data using
   VICON BodyBuilder and BodyLanguage model FoxedUp or BRILLIANT.MOD
:root
   order TX TY TZ RX RY RZ
   axis XYZ
   position 0 0 0  
   orientation 0 0 0 
:bonedata
  begin
     id 1 
     name lhipjoint
     direction 0.588788 -0.725889 0.355548 
     length 2.37778 
     axis 0 0 0  XYZ
  end
  begin
     id 2 
     name lfemur
     direction 0.34202 -0.939693 0  
     length 6.86393  
     axis 0 0 20  XYZ
    dof rx ry rz
    limits (-160.0 20.0)
           (-70.0 70.0)
           (-60.0 70.0)
  end
  begin
     id 3 
     name ltibia
     direction 0.34202 -0.939693 0   
     length 7.32851   
     axis 0 0 20   XYZ
    dof rx
    limits (-10.0 170.0)
  end
  begin
     id 4 
     name lfoot
     direction 0.0626533 -0.172138 0.983078   
     length 1.98929   
     axis -90 7.62852e-016 20   XYZ
    dof rx rz
    limits (-45.0 90.0)
           (-70.0 20.0)
  end
  begin
     id 5 
     name ltoes
     direction 1.53647e-011 -4.21734e-011 1   
     length 1.00479   
     axis -90 7.62852e-016 20   XYZ
    dof rx
    limits (-90.0 20.0)
  end
  begin
     id 6 
     name rhipjoint
     direction -0.59141 -0.724168 0.354705   
     length 2.38343  
     axis 0 0 0  XYZ 
  end
  begin
     id 7 
     name rfemur
     direction -0.34202 -0.939693 0   
     length 6.95589   
     axis 0 0 -20   XYZ
    dof rx ry rz
    limits (-160.0 20.0)
           (-70.0 70.0)
           (-70.0 60.0)
  end
  begin
     id 8 
     name rtibia
     direction -0.34202 -0.939693 0   
     length 7.32327   
     axis 0 0 -20   XYZ
    dof rx
    limits (-10.0 170.0)
 end
 begin
     id 9 
     name rfoot
     direction -0.0660461 -0.18146 0.981178   
     length 1.85272  
     axis -90 -7.62852e-016 -20   XYZ
    dof rx rz
    limits (-45.0 90.0)
           (-20.0 70.0)
  end
  begin
     id 10 
     name rtoes
     direction -1.53586e-011 -4.21988e-011 1   
     length 0.93746   
     axis -90 -7.62852e-016 -20   XYZ
    dof rx
    limits (-90.0 20.0)
  end
  begin
     id 11 
     name lowerback
     direction -0.0107982 0.991059 0.13299   
     length 1.98691   
     axis 0 0 0   XYZ
    dof rx ry rz
    limits (-20.0 45.0)
           (-30.0 30.0)
           (-30.0 30.0)
  end
  begin
     id 12 
     name upperback
     direction 0.0076296 0.999916 0.0104576   
     length 1.99501   
     axis 0 0 0   XYZ
    dof rx ry rz
    limits (-20.0 45.0)
           (-30.0 30.0)
           (-30.0 30.0)
  end
  begin
     id 13 
     name thorax
     direction 0.01176 0.998615 -0.0512909   
     length 2.03144   
     axis 0 0 0   XYZ
    dof rx ry rz
    limits (-20.0 45.0)
           (-30.0 30.0)
           (-30.0 30.0)
  end
  begin
     id 14 
     name lowerneck
     direction -0.0171909 0.999644 0.0204011   
     length 1.71818   
     axis 0 0 0   XYZ
    dof rx ry rz
    limits (-20.0 45.0)
           (-30.0 30.0)
           (-30.0 30.0)
  end
  begin
     id 15 
     name upperneck
     direction 0.0250902 0.997482 -0.0663316   
     length 1.66199   
     axis 0 0 0   XYZ
    dof rx ry rz
    limits (-20.0 45.0)
           (-30.0 30.0)
           (-30.0 30.0)
  end
  begin
     id 16
     name head
     direction 0.00881535 0.99956 -0.0283365  
     length 1.81545  
     axis 0 0 0   XYZ
    dof rx ry rz
    limits (-20.0 45.0)
           (-30.0 30.0)
           (-30.0 30.0)
  end
  begin
     id 17 
     name lclavicle
     direction 0.840411 0.486876 -0.238035  
     length 3.30409  
     axis 0 0 0   XYZ
    dof ry rz
    limits (-20.0 10.0)
           (0.0 20.0)
  end
  begin
     id 18 
     name lhumerus
     direction 1 -4.48977e-011 -5.16239e-027   
     length 4.62672   
     axis 180 -30 -90   XYZ
    dof rx ry rz
    limits (-60.0 90.0)
           (-90.0 90.0)
           (-90.0 90.0)
  end
  begin
     id 19
     name lradius
     direction 1 -4.48977e-011 -8.71171e-027   
     length 3.11018   
     axis 180 -30 -90   XYZ
    dof rx
    limits (-10.0 170.0)
  end
  begin
     id 20
     name lwrist
     direction 1 -4.48912e-011 -1.03764e-026   
     length 1.55509   
     axis 9.09556e-015 90 90   XYZ
    dof ry
    limits (-180.0 0.0)
 end
  begin
     id 21 
     name lhand
     direction 1 -4.49072e-011 -2.07528e-026   
     length 0.743834   
     axis 1.3242e-014 90 90   XYZ
    dof rx rz
    limits (-90.0 90.0)
           (-45.0 45.0)
  end
  begin
     id 22 
     name lfingers
     direction 1 -4.48909e-011 -4.15056e-026   
     length 0.599698   
     axis 2.64841e-014 90 90   XYZ
    dof rx
    limits (0.0 90.0)
  end
  begin
     id 23
     name lthumb
     direction 0.707107 -6.35013e-011 0.707107   
     length 0.86105   
     axis -90 45 2.85299e-015   XYZ
    dof rx rz
    limits (-45.0 45.0)
           (-45.0 45.0)
  end
  begin
     id 24 
     name rclavicle
     direction -0.835208 0.500237 -0.228452   
     length 3.2716  
     axis 0 0 0   XYZ 
    dof ry rz
    limits (-10.0 20.0)
           (-20.0 0.0)
  end
  begin
     id 25 
     name rhumerus
     direction -1 -4.48978e-011 -5.1953e-028  
     length 4.55919   
     axis 180 30 90   XYZ
    dof rx ry rz
    limits (-90.0 60.0)
           (-90.0 90.0)
           (-90.0 90.0)
  end
  begin
     id 26 
     name rradius
     direction -1 -4.48961e-011 -5.99546e-027   
     length 3.22748   
     axis 180 30 90   XYZ
    dof rx
    limits (-10.0 170.0)
  end
  begin
     id 27 
     name rwrist
     direction -1 -4.48986e-011 -1.03764e-026   
     length 1.61374   
     axis 9.09556e-015 -90 -90   XYZ
    dof ry
    limits (-180.0 0.0)
  end
  begin
     id 28
     name rhand
     direction -1 -4.4899e-011 -2.07528e-026   
     length 0.700882   
     axis 1.3242e-014 -90 -90   XYZ
    dof rx rz
    limits (-90.0 90.0)
           (-45.0 45.0)
  end
  begin
     id 29
     name rfingers
     direction -1 -4.48991e-011 -4.15056e-026   
     length 0.565069   
     axis 2.64841e-014 -90 -90   XYZ
    dof rx
    limits (0.0 90.0)
  end
  begin
     id 30
     name rthumb
     direction -0.707107 -6.34804e-011 0.707107   
     length 0.811329   
     axis -90 -45 -2.85299e-015   XYZ
    dof rx rz
    limits (-45.0 45.0)
           (-45.0 45.0)
  end
:hierarchy
  begin
    root lhipjoint rhipjoint lowerback
    lhipjoint lfemur
    lfemur ltibia
    ltibia lfoot
    lfoot ltoes
    rhipjoint rfemur
    rfemur rtibia
    rtibia rfoot
    rfoot rtoes
    lowerback upperback
    upperback thorax
    thorax lowerneck lclavicle rclavicle
    lowerneck upperneck
    upperneck head
    lclavicle lhumerus
    lhumerus lradius
    lradius lwrist
    lwrist lhand lthumb
    lhand lfingers
    rclavicle rhumerus
    rhumerus rradius
    rradius rwrist
    rwrist rhand rthumb
    rhand rfingers
  end

#!OML:ASF F:\VICON\USERDATA\INSTALL\SteveWalk\SteveWalk.ASF
:FULLY-SPECIFIED
:DEGREES
173
root 0.360291 15.993 -4.31088 18.962 6.68433 1.16439
lowerback -14.1922 -3.3099 0.784077
upperback -6.06499 -4.54433 2.72418
thorax 1.70734 -2.24814 1.69979
lowerneck -6.0896 0.250313 0.568825
upperneck 7.25066 0.672893 -4.74296
head 3.45429 0.154831 -1.63255
rclavicle 1.05977e-014 9.54166e-015
rhumerus -97.9077 -29.3957 15.202
rradius 12.0136
rwrist 57.931
rhand -15.0334 -40.4804
rfingers 7.12502
rthumb 11.1325 -70.1651
lclavicle 1.05977e-014 9.54166e-015
lhumerus -21.9734 -3.51601 81.2797
lradius 55.8572
lwrist 16.231
lhand -26.4339 -18.0734
lfingers 7.12502
lthumb 0.126644 11.9063
rfemur -52.5025 -1.98891 21.4448
rtibia 32.0802
rfoot -3.1679 3.05671
rtoes -25.0779
lfemur -1.02255 -1.59058 -18.9187
ltibia 30.9825
lfoot -2.98039 -13.515
ltoes -20.9065
174
root 0.358048 15.9901 -4.0669 19.0634 6.0021 0.783361
lowerback -14.2433 -3.06564 1.25443
upperback -6.0987 -4.28847 2.88445
thorax 1.6702 -2.12576 1.64258
lowerneck -6.17525 0.372055 0.582624
upperneck 7.20185 0.859101 -5.04861
head 3.46417 0.234617 -1.72855
rclavicle 2.37299e-014 -7.95139e-015
rhumerus -98.3014 -30.0264 16.2765
rradius 11.9741
rwrist 59.1982
rhand -15.2753 -40.2849
rfingers 7.12502
rthumb 10.8993 -69.982
lclavicle 2.37299e-014 -7.95139e-015
lhumerus -22.8339 -2.93622 81.4214
lradius 56.2403
lwrist 16.3701
lhand -26.5945 -17.4558
lfingers 7.12502
lthumb -0.0284228 12.524
rfemur -52.7626 -1.06199 21.6953
rtibia 33.8598
rfoot -4.31234 3.13977
rtoes -24.4399
lfemur -2.68114 -1.31632 -18.7566
ltibia 34.4155
lfoot 1.70682 -13.401
ltoes -17.1794
175
root 0.356518 15.9942 -3.82361 19.1193 5.46913 0.347559
lowerback -14.3345 -2.82749 1.80987
upperback -6.02636 -4.05638 3.02016
thorax 1.76071 -2.01573 1.50279
lowerneck -6.18538 0.459054 0.699558
upperneck 6.83916 0.973458 -5.35047
head 3.34984 0.287819 -1.84081
rclavicle -2.74571e-014 7.95139e-016
rhumerus -98.1883 -30.9334 15.9854
rradius 11.9723
rwrist 59.3172
rhand -15.6182 -40.0294
rfingers 7.12502
rthumb 10.5684 -69.7437
lclavicle -2.74571e-014 7.95139e-016
lhumerus -23.6218 -2.48466 81.5339
lradius 56.5038
lwrist 16.511
lhand -26.5301 -17.299
lfingers 7.12502
lthumb 0.0337092 12.6808
rfemur -52.8379 -0.587322 22.2815
rtibia 35.399
rfoot -5.33939 4.1009
rtoes -18.7816
lfemur -4.346 -1.08963 -18.4336
ltibia 37.747
lfoot 6.39652 -13.0914
ltoes -14.1891
176
root 0.353013 16.0084 -3.58444 19.0194 5.17346 -0.0106141
lowerback -14.1672 -2.67447 2.2533
upperback -5.96408 -3.91346 3.17047
thorax 1.7149 -1.94932 1.44004
lowerneck -6.53475 0.516008 0.774071
upperneck 6.94047 1.06963 -5.58539
head 3.46085 0.321532 -1.9327
rclavicle 3.2551e-015 -5.56597e-015
rhumerus -97.6431 -31.9608 14.8539
rradius 11.9983
rwrist 58.7665
rhand -15.8324 -39.6744
rfingers 7.12502
rthumb 10.3618 -69.3991
lclavicle 3.2551e-015 -5.56597e-015
lhumerus -24.4556 -2.10034 81.7512
lradius 56.4866
lwrist 16.706
lhand -26.3534 -17.6852
lfingers 7.12502
lthumb 0.204399 12.2945
rfemur -52.5552 -0.406604 22.8833
rtibia 36.7183
rfoot -6.25023 4.73236
rtoes -13.0628
lfemur -5.817 -1.05042 -18.067
ltibia 40.8797
lfoot 10.4618 -12.927
ltoes -11.9364
177
root 0.350774 16.027 -3.3396 18.8552 4.81052 -0.245955
lowerback -14.0515 -2.48315 2.55203
upperback -5.86412 -3.70184 3.26066
thorax 1.74214 -1.84639 1.40166
lowerneck -7.00198 0.524551 0.624027
upperneck 7.26086 1.11533 -5.57391
head 3.66396 0.328405 -1.90706
rclavicle -3.3048e-015 1.27222e-014
rhumerus -97.199 -32.9294 13.8623
rradius 12.0071
rwrist 58.2786
rhand -15.862 -39.3804
rfingers 7.12502
rthumb 10.3333 -69.1065
lclavicle -3.3048e-015 1.27222e-014
lhumerus -25.23 -1.884 82.0678
lradius 56.3625
lwrist 16.9587
lhand -26.1417 -17.5954
lfingers 7.12502
lthumb 0.408908 12.384
rfemur -52.0131 -0.45334 23.4642
rtibia 37.8601
rfoot -7.4435 4.94454
rtoes -12.065
lfemur -7.05186 -0.94312 -17.8843
ltibia 43.7308
lfoot 13.3844 -13.4159
ltoes -12.8223
178
root 0.348607 16.0491 -3.08221 18.4697 4.66047 -0.180351
lowerback -13.9619 -2.36682 2.60982
upperback -5.6307 -3.55938 3.18373
thorax 1.9297 -1.77415 1.30773
lowerneck -7.13399 0.453141 0.608921
upperneck 7.14492 1.01419 -5.54273
head 3.64485 0.279312 -1.89837
rclavicle 1.06101e-014 -2.38542e-015
rhumerus -96.2497 -33.9551 11.6184
rradius 12.0396
rwrist 56.6714
rhand -15.907 -39.8062
rfingers 7.12502
rthumb 10.2899 -69.5345
lclavicle 1.06101e-014 -2.38542e-015
lhumerus -25.8494 -1.94986 82.3508
lradius 56.1406
lwrist 17.1806
lhand -26.0678 -16.9927
lfingers 7.12502
lthumb 0.480252 12.9865
rfemur -50.9964 -1.0072 23.8882
rtibia 38.7665
rfoot -8.81221 5.27446
rtoes -12.9994
lfemur -7.96353 -1.06941 -17.9638
ltibia 46.463
lfoot 15.9669 -14.0423
ltoes -14.4996
179
root 0.33688 16.0826 -2.81999 17.8778 5.15721 0.178275
lowerback -13.795 -2.5493 2.26237
upperback -5.34983 -3.75703 3.09541
thorax 2.15325 -1.8669 1.37859
lowerneck -7.10635 0.434271 0.708026
upperneck 6.98776 0.969393 -5.52694
head 3.58359 0.263626 -1.91089
rclavicle 1.80646e-014 4.77083e-015
rhumerus -95.2782 -35.0313 9.3756
rradius 12.0819
rwrist 55.1697
rhand -15.9917 -39.9778
rfingers 7.12502
rthumb 10.2082 -69.7101
lclavicle 1.80646e-014 4.77083e-015
lhumerus -26.3229 -1.96207 82.6573
lradius 55.5503
lwrist 17.3148
lhand -26.0021 -16.5752
lfingers 7.12502
lthumb 0.543682 13.4039
rfemur -49.5404 -1.9129 23.9887
rtibia 39.4203
rfoot -10.0813 5.34133
rtoes -13.4134
lfemur -8.68904 -1.75096 -18.0702
ltibia 49.1188
lfoot 18.5502 -14.3586
ltoes -17.8714
180
root 0.343589 16.1036 -2.60066 17.844 5.00888 -0.0516826
lowerback -13.6871 -2.353 2.6884
upperback -5.36549 -3.54572 3.07053
thorax 2.04847 -1.7666 1.15202
lowerneck -7.01923 0.424987 0.640854
upperneck 7.05484 0.946173 -5.2872
head 3.58476 0.260606 -1.81901
rclavicle 4.24902e-015 1.90833e-014
rhumerus -94.9582 -35.9877 8.31024
rradius 12.0464
rwrist 55.0662
rhand -15.9846 -38.5202
rfingers 7.12502
rthumb 10.215 -68.2522
lclavicle 4.24902e-015 1.90833e-014
lhumerus -26.711 -1.85546 82.9594
lradius 54.6303
lwrist 17.4633
lhand -25.3345 -16.4491
lfingers 7.12502
lthumb 1.18854 13.5273
rfemur -48.8753 -2.40145 24.5997
rtibia 39.7952
rfoot -11.0445 5.86453
rtoes -12.6119
lfemur -10.2263 -1.74707 -17.9342
ltibia 51.9
lfoot 19.6857 -14.5718
ltoes -23.2075
181
root 0.333851 16.1296 -2.38437 17.8476 5.30881 -0.45811
lowerback -13.5478 -2.26364 3.12284
upperback -5.46446 -3.47353 3.17835
thorax 1.84937 -1.73632 1.04133
lowerneck -6.77852 0.319815 0.472835
upperneck 7.12888 0.7999 -5.01125
head 3.55292 0.19717 -1.70234
rclavicle 4.05521e-014 -2.62396e-014
rhumerus -94.0937 -36.9513 6.3268
rradius 12.0113
rwrist 54.5017
rhand -15.6745 -36.7997
rfingers 7.12502
rthumb 10.5142 -66.5168
lclavicle 4.05521e-014 -2.62396e-014
lhumerus -27.182 -1.81326 83.3767
lradius 53.6466
lwrist 17.368
lhand -24.8872 -16.0293
lfingers 7.12502
lthumb 1.62053 13.9443
rfemur -48.1099 -2.69937 25.3081
rtibia 39.9934
rfoot -11.9996 5.76378
rtoes -11.1051
lfemur -12.0262 -1.81387 -17.3307
ltibia 54.7023
lfoot 19.6062 -14.0397
ltoes -23.8333
182
root 0.319979 16.1594 -2.15931 17.7441 5.65285 -0.73447
lowerback -13.4856 -2.2003 3.26088
upperback -5.4346 -3.40873 3.33241
thorax 1.84832 -1.70347 1.136
lowerneck -6.89468 0.175061 0.384154
upperneck 7.29046 0.619415 -4.97042
head 3.62509 0.103109 -1.68508
rclavicle 1.95554e-014 -3.73715e-014
rhumerus -93.0204 -38.1484 4.31718
rradius 11.9613
rwrist 53.6637
rhand -15.3508 -36.6369
rfingers 7.12502
rthumb 10.8264 -66.3378
lclavicle 1.95554e-014 -3.73715e-014
lhumerus -27.5855 -1.81238 84.0434
lradius 52.524
lwrist 16.877
lhand -24.7801 -15.7369
lfingers 7.12502
lthumb 1.72396 14.2358
rfemur -47.0918 -2.80772 25.7554
rtibia 40.0093
rfoot -12.9129 5.35098
rtoes -10.7393
lfemur -13.7664 -1.79022 -16.8223
ltibia 57.5131
lfoot 18.5021 -12.9307
ltoes -22.0894
183
root 0.323491 16.1849 -1.93725 17.8199 5.95503 -0.695888
lowerback -13.5762 -2.0984 3.32191
upperback -5.52307 -3.28007 3.31527
thorax 1.79965 -1.64044 1.1017
lowerneck -6.81371 -0.00118187 0.356708
upperneck 7.42168 0.389212 -4.95888
head 3.64752 -0.0120462 -1.68948
rclavicle -4.38072e-014 1.66979e-014
rhumerus -92.0646 -39.2119 2.5078
rradius 11.9354
rwrist 53.0243
rhand -15.0606 -37.4932
rfingers 7.12502
rthumb 11.1063 -67.1794
lclavicle -4.38072e-014 1.66979e-014
lhumerus -28.1095 -1.83804 84.7039
lradius 51.2239
lwrist 16.2622
lhand -24.1314 -15.9516
lfingers 7.12502
lthumb 2.35043 14.0152
rfemur -46.235 -3.23393 25.8934
rtibia 39.9165
rfoot -13.771 5.15614
rtoes -11.3515
lfemur -15.6424 -1.82879 -16.806
ltibia 60.1768
lfoot 16.3293 -11.7607
ltoes -20.619
184
root 0.307113 16.2056 -1.72242 18.0646 5.68439 -0.900273
lowerback -13.6138 -1.82586 3.27741
upperback -5.8019 -2.90367 3.36772
thorax 1.53291 -1.45589 1.24183
lowerneck -6.37391 -0.171474 0.25021
upperneck 7.63443 0.169027 -4.89276
head 3.62752 -0.119043 -1.65831
rclavicle 9.41742e-015 -2.38542e-014
rhumerus -91.041 -40.0691 0.622001
rradius 11.942
rwrist 52.6794
rhand -14.5992 -38.1035
rfingers 7.12502
rthumb 11.5513 -67.7652
lclavicle 9.41742e-015 -2.38542e-014
lhumerus -28.9043 -1.71569 85.2215
lradius 49.9071
lwrist 15.1775
lhand -23.4141 -15.8926
lfingers 7.12502
lthumb 3.04321 14.0654
rfemur -45.5762 -2.60764 26.0417
rtibia 39.7455
rfoot -14.4052 4.63471
rtoes -11.7815
lfemur -17.87 -1.21065 -16.6007
ltibia 62.7322
lfoot 14.095 -10.5146
ltoes -18.1339
185
root 0.304049 16.2451 -1.5079 18.1091 5.9443 -1.451
lowerback -13.6545 -1.64339 3.82319
upperback -5.88585 -2.73087 3.52776
thorax 1.44649 -1.37619 1.1294
lowerneck -6.37095 -0.330378 0.183069
upperneck 8.02939 -0.0165379 -4.94611
head 3.76015 -0.221117 -1.6799
rclavicle -3.00165e-014 1.98785e-014
rhumerus -90.3625 -41.2665 -0.436468
rradius 11.8534
rwrist 53.1128
rhand -14.1155 -38.5078
rfingers 7.12502
rthumb 12.0178 -68.1427
lclavicle -3.00165e-014 1.98785e-014
lhumerus -29.2597 -1.52122 85.7149
lradius 48.2978
lwrist 13.7292
lhand -23.0878 -15.7645
lfingers 7.12502
lthumb 3.35832 14.1887
rfemur -44.6005 -2.64719 26.7423
rtibia 39.506
rfoot -15.2675 4.43444
rtoes -12.0098
lfemur -19.9642 -0.926839 -15.9611
ltibia 65.0518
lfoot 11.9747 -9.67882
ltoes -14.8301
186
root 0.296815 16.2817 -1.29412 18.2007 5.93403 -1.40925
lowerback -13.8929 -1.51899 3.59075
upperback -5.83418 -2.55433 3.54591
thorax 1.64158 -1.28144 1.29593
lowerneck -6.48223 -0.447635 0.222889
upperneck 8.29717 -0.160143 -5.00255
head 3.87289 -0.2987 -1.71948
rclavicle 4.34841e-016 1.59028e-015
rhumerus -88.0825 -42.5374 -3.88647
rradius 11.9064
rwrist 51.9517
rhand -13.7034 -38.661
rfingers 7.12502
rthumb 12.4151 -68.2723
lclavicle 4.34841e-016 1.59028e-015
lhumerus -29.2929 -1.28486 86.2118
lradius 46.5015
lwrist 12.7142
lhand -22.7814 -16.1
lfingers 7.12502
lthumb 3.65423 13.8484
rfemur -43.6315 -2.61344 26.7311
rtibia 39.1525
rfoot -15.9664 4.29682
rtoes -12.1537
lfemur -22.0121 -0.623475 -16.084
ltibia 67.1251
lfoot 7.02252 -8.28293
ltoes -23.9808
